<?xml version="1.0" encoding="UTF-8" standalone="no"?>
<!DOCTYPE svg PUBLIC "-//W3C//DTD SVG 1.1//EN"
 "http://www.w3.org/Graphics/SVG/1.1/DTD/svg11.dtd">
<!-- Generated by graphviz version 2.44.1 (20200629.0846)
 -->
<!-- Pages: 1 -->
<svg width="1142pt" height="509pt"
 viewBox="0.00 0.00 1141.50 509.00" xmlns="http://www.w3.org/2000/svg" xmlns:xlink="http://www.w3.org/1999/xlink">
<g id="graph0" class="graph" transform="scale(1 1) rotate(0) translate(4 505)">
<polygon fill="white" stroke="transparent" points="-4,4 -4,-505 1137.5,-505 1137.5,4 -4,4"/>
<!-- jkphl/dom&#45;factory -->
<g id="node1" class="node">
<title>jkphl/dom&#45;factory</title>
<path fill="#eeeeee" stroke="black" stroke-width="2" d="M920.5,-501C920.5,-501 827.5,-501 827.5,-501 821.5,-501 815.5,-495 815.5,-489 815.5,-489 815.5,-477 815.5,-477 815.5,-471 821.5,-465 827.5,-465 827.5,-465 920.5,-465 920.5,-465 926.5,-465 932.5,-471 932.5,-477 932.5,-477 932.5,-489 932.5,-489 932.5,-495 926.5,-501 920.5,-501"/>
<text text-anchor="middle" x="874" y="-479.3" font-family="Times New Roman,serif" font-size="14.00" fill="#314b5f">jkphl/dom&#45;factory</text>
</g>
<!-- php -->
<g id="node2" class="node">
<title>php</title>
<path fill="#eeeeee" stroke="black" d="M552,-36C552,-36 522,-36 522,-36 516,-36 510,-30 510,-24 510,-24 510,-12 510,-12 510,-6 516,0 522,0 522,0 552,0 552,0 558,0 564,-6 564,-12 564,-12 564,-24 564,-24 564,-30 558,-36 552,-36"/>
<text text-anchor="middle" x="537" y="-14.3" font-family="Times New Roman,serif" font-size="14.00" fill="#314b5f">php</text>
</g>
<!-- jkphl/dom&#45;factory&#45;&gt;php -->
<g id="edge1" class="edge">
<title>jkphl/dom&#45;factory&#45;&gt;php</title>
<path fill="none" stroke="#1a2833" d="M815.3,-479.64C619.34,-471.39 0,-442.05 0,-401 0,-401 0,-401 0,-100 0,-55.08 46.77,-66.21 90,-54 166.73,-32.32 406.89,-22.93 499.79,-20.04"/>
<polygon fill="#1a2833" stroke="#1a2833" points="499.97,-23.53 509.86,-19.73 499.76,-16.54 499.97,-23.53"/>
<text text-anchor="middle" x="11" y="-260.5" font-family="Times New Roman,serif" font-size="10.00" fill="#767676">&gt;=7.2</text>
</g>
<!-- ext&#45;dom -->
<g id="node3" class="node">
<title>ext&#45;dom</title>
<path fill="#eeeeee" stroke="black" d="M907.5,-335C907.5,-335 868.5,-335 868.5,-335 862.5,-335 856.5,-329 856.5,-323 856.5,-323 856.5,-311 856.5,-311 856.5,-305 862.5,-299 868.5,-299 868.5,-299 907.5,-299 907.5,-299 913.5,-299 919.5,-305 919.5,-311 919.5,-311 919.5,-323 919.5,-323 919.5,-329 913.5,-335 907.5,-335"/>
<text text-anchor="middle" x="888" y="-313.3" font-family="Times New Roman,serif" font-size="14.00" fill="#314b5f">ext&#45;dom</text>
</g>
<!-- jkphl/dom&#45;factory&#45;&gt;ext&#45;dom -->
<g id="edge2" class="edge">
<title>jkphl/dom&#45;factory&#45;&gt;ext&#45;dom</title>
<path fill="none" stroke="#1a2833" d="M875.47,-464.76C877.9,-436.26 882.78,-379.12 885.68,-345.16"/>
<polygon fill="#1a2833" stroke="#1a2833" points="889.18,-345.27 886.55,-335.01 882.21,-344.68 889.18,-345.27"/>
<text text-anchor="middle" x="886" y="-397.5" font-family="Times New Roman,serif" font-size="10.00" fill="#767676">*</text>
</g>
<!-- ext&#45;libxml -->
<g id="node4" class="node">
<title>ext&#45;libxml</title>
<path fill="#eeeeee" stroke="black" d="M1121.5,-335C1121.5,-335 1074.5,-335 1074.5,-335 1068.5,-335 1062.5,-329 1062.5,-323 1062.5,-323 1062.5,-311 1062.5,-311 1062.5,-305 1068.5,-299 1074.5,-299 1074.5,-299 1121.5,-299 1121.5,-299 1127.5,-299 1133.5,-305 1133.5,-311 1133.5,-311 1133.5,-323 1133.5,-323 1133.5,-329 1127.5,-335 1121.5,-335"/>
<text text-anchor="middle" x="1098" y="-313.3" font-family="Times New Roman,serif" font-size="14.00" fill="#314b5f">ext&#45;libxml</text>
</g>
<!-- jkphl/dom&#45;factory&#45;&gt;ext&#45;libxml -->
<g id="edge3" class="edge">
<title>jkphl/dom&#45;factory&#45;&gt;ext&#45;libxml</title>
<path fill="none" stroke="#1a2833" d="M932.7,-475.74C974.09,-468.4 1028.16,-452.49 1063,-418 1082.55,-398.65 1091.2,-367.79 1095.02,-345.46"/>
<polygon fill="#1a2833" stroke="#1a2833" points="1098.52,-345.68 1096.53,-335.28 1091.6,-344.65 1098.52,-345.68"/>
<text text-anchor="middle" x="1088" y="-397.5" font-family="Times New Roman,serif" font-size="10.00" fill="#767676">*</text>
</g>
<!-- guzzlehttp/guzzle -->
<g id="node5" class="node">
<title>guzzlehttp/guzzle</title>
<path fill="#eeeeee" stroke="black" d="M801,-418C801,-418 679,-418 679,-418 673,-418 667,-412 667,-406 667,-406 667,-394 667,-394 667,-388 673,-382 679,-382 679,-382 801,-382 801,-382 807,-382 813,-388 813,-394 813,-394 813,-406 813,-406 813,-412 807,-418 801,-418"/>
<text text-anchor="middle" x="740" y="-396.3" font-family="Times New Roman,serif" font-size="14.00" fill="#314b5f">guzzlehttp/guzzle: 6.5.5</text>
</g>
<!-- jkphl/dom&#45;factory&#45;&gt;guzzlehttp/guzzle -->
<g id="edge4" class="edge">
<title>jkphl/dom&#45;factory&#45;&gt;guzzlehttp/guzzle</title>
<path fill="none" stroke="#1a2833" d="M845.58,-464.82C825.6,-452.74 798.66,-436.46 777,-423.36"/>
<polygon fill="#1a2833" stroke="#1a2833" points="778.75,-420.33 768.38,-418.15 775.12,-426.32 778.75,-420.33"/>
<text text-anchor="middle" x="824" y="-439" font-family="Times New Roman,serif" font-size="10.00" fill="#767676">^6.0</text>
</g>
<!-- masterminds/html5 -->
<g id="node6" class="node">
<title>masterminds/html5</title>
<path fill="#eeeeee" stroke="black" d="M1042,-418C1042,-418 910,-418 910,-418 904,-418 898,-412 898,-406 898,-406 898,-394 898,-394 898,-388 904,-382 910,-382 910,-382 1042,-382 1042,-382 1048,-382 1054,-388 1054,-394 1054,-394 1054,-406 1054,-406 1054,-412 1048,-418 1042,-418"/>
<text text-anchor="middle" x="976" y="-396.3" font-family="Times New Roman,serif" font-size="14.00" fill="#314b5f">masterminds/html5: 2.7.3</text>
</g>
<!-- jkphl/dom&#45;factory&#45;&gt;masterminds/html5 -->
<g id="edge5" class="edge">
<title>jkphl/dom&#45;factory&#45;&gt;masterminds/html5</title>
<path fill="none" stroke="#1a2833" d="M895.63,-464.82C910.37,-453.12 930.08,-437.47 946.29,-424.6"/>
<polygon fill="#1a2833" stroke="#1a2833" points="948.75,-427.11 954.4,-418.15 944.39,-421.63 948.75,-427.11"/>
<text text-anchor="middle" x="940" y="-439" font-family="Times New Roman,serif" font-size="10.00" fill="#767676">^2.7</text>
</g>
<!-- guzzlehttp/guzzle&#45;&gt;php -->
<g id="edge9" class="edge">
<title>guzzlehttp/guzzle&#45;&gt;php</title>
<path fill="none" stroke="#1a2833" d="M758.07,-381.97C808.74,-334.01 949.2,-199.57 960,-173 966.02,-158.18 964.12,-152.46 960,-137 945.56,-82.83 919.1,-68.73 865,-54 762.36,-26.05 635.98,-20.23 574.35,-19.15"/>
<polygon fill="#1a2833" stroke="#1a2833" points="574.37,-15.65 564.32,-19 574.27,-22.65 574.37,-15.65"/>
<text text-anchor="middle" x="959" y="-206.5" font-family="Times New Roman,serif" font-size="10.00" fill="#767676">&gt;=5.5</text>
</g>
<!-- ext&#45;json -->
<g id="node7" class="node">
<title>ext&#45;json</title>
<path fill="#eeeeee" stroke="black" d="M762.5,-335C762.5,-335 725.5,-335 725.5,-335 719.5,-335 713.5,-329 713.5,-323 713.5,-323 713.5,-311 713.5,-311 713.5,-305 719.5,-299 725.5,-299 725.5,-299 762.5,-299 762.5,-299 768.5,-299 774.5,-305 774.5,-311 774.5,-311 774.5,-323 774.5,-323 774.5,-329 768.5,-335 762.5,-335"/>
<text text-anchor="middle" x="744" y="-313.3" font-family="Times New Roman,serif" font-size="14.00" fill="#314b5f">ext&#45;json</text>
</g>
<!-- guzzlehttp/guzzle&#45;&gt;ext&#45;json -->
<g id="edge6" class="edge">
<title>guzzlehttp/guzzle&#45;&gt;ext&#45;json</title>
<path fill="none" stroke="#1a2833" d="M740.85,-381.82C741.37,-371.19 742.06,-357.31 742.66,-345.2"/>
<polygon fill="#1a2833" stroke="#1a2833" points="746.16,-345.31 743.15,-335.15 739.16,-344.97 746.16,-345.31"/>
<text text-anchor="middle" x="746" y="-356" font-family="Times New Roman,serif" font-size="10.00" fill="#767676">*</text>
</g>
<!-- guzzlehttp/promises -->
<g id="node8" class="node">
<title>guzzlehttp/promises</title>
<path fill="#eeeeee" stroke="black" d="M239.5,-281C239.5,-281 94.5,-281 94.5,-281 88.5,-281 82.5,-275 82.5,-269 82.5,-269 82.5,-257 82.5,-257 82.5,-251 88.5,-245 94.5,-245 94.5,-245 239.5,-245 239.5,-245 245.5,-245 251.5,-251 251.5,-257 251.5,-257 251.5,-269 251.5,-269 251.5,-275 245.5,-281 239.5,-281"/>
<text text-anchor="middle" x="167" y="-259.3" font-family="Times New Roman,serif" font-size="14.00" fill="#314b5f">guzzlehttp/promises: v1.3.1</text>
</g>
<!-- guzzlehttp/guzzle&#45;&gt;guzzlehttp/promises -->
<g id="edge7" class="edge">
<title>guzzlehttp/guzzle&#45;&gt;guzzlehttp/promises</title>
<path fill="none" stroke="#1a2833" d="M666.78,-396.15C569.72,-391.75 404,-381.88 346,-364 290.34,-346.84 232.7,-310.76 198.35,-286.96"/>
<polygon fill="#1a2833" stroke="#1a2833" points="200.33,-284.07 190.14,-281.19 196.31,-289.8 200.33,-284.07"/>
<text text-anchor="middle" x="354" y="-356" font-family="Times New Roman,serif" font-size="10.00" fill="#767676">^1.0</text>
</g>
<!-- guzzlehttp/psr7 -->
<g id="node9" class="node">
<title>guzzlehttp/psr7</title>
<path fill="#eeeeee" stroke="black" d="M314,-227C314,-227 202,-227 202,-227 196,-227 190,-221 190,-215 190,-215 190,-203 190,-203 190,-197 196,-191 202,-191 202,-191 314,-191 314,-191 320,-191 326,-197 326,-203 326,-203 326,-215 326,-215 326,-221 320,-227 314,-227"/>
<text text-anchor="middle" x="258" y="-205.3" font-family="Times New Roman,serif" font-size="14.00" fill="#314b5f">guzzlehttp/psr7: 1.6.1</text>
</g>
<!-- guzzlehttp/guzzle&#45;&gt;guzzlehttp/psr7 -->
<g id="edge8" class="edge">
<title>guzzlehttp/guzzle&#45;&gt;guzzlehttp/psr7</title>
<path fill="none" stroke="#1a2833" d="M666.87,-388.43C610.33,-378.74 530.85,-361.76 465,-335 398.47,-307.97 328.42,-261.25 289.27,-233.22"/>
<polygon fill="#1a2833" stroke="#1a2833" points="291.09,-230.22 280.93,-227.2 286.99,-235.89 291.09,-230.22"/>
<text text-anchor="middle" x="476.5" y="-314.5" font-family="Times New Roman,serif" font-size="10.00" fill="#767676">^1.6.1</text>
</g>
<!-- symfony/polyfill&#45;intl&#45;idn -->
<g id="node10" class="node">
<title>symfony/polyfill&#45;intl&#45;idn</title>
<path fill="#eeeeee" stroke="black" d="M683,-335C683,-335 509,-335 509,-335 503,-335 497,-329 497,-323 497,-323 497,-311 497,-311 497,-305 503,-299 509,-299 509,-299 683,-299 683,-299 689,-299 695,-305 695,-311 695,-311 695,-323 695,-323 695,-329 689,-335 683,-335"/>
<text text-anchor="middle" x="596" y="-313.3" font-family="Times New Roman,serif" font-size="14.00" fill="#314b5f">symfony/polyfill&#45;intl&#45;idn: v1.18.1</text>
</g>
<!-- guzzlehttp/guzzle&#45;&gt;symfony/polyfill&#45;intl&#45;idn -->
<g id="edge10" class="edge">
<title>guzzlehttp/guzzle&#45;&gt;symfony/polyfill&#45;intl&#45;idn</title>
<path fill="none" stroke="#1a2833" d="M709.46,-381.82C687.89,-369.69 658.78,-353.31 635.45,-340.19"/>
<polygon fill="#1a2833" stroke="#1a2833" points="636.93,-337.01 626.49,-335.15 633.49,-343.11 636.93,-337.01"/>
<text text-anchor="middle" x="691" y="-356" font-family="Times New Roman,serif" font-size="10.00" fill="#767676">^1.17.0</text>
</g>
<!-- masterminds/html5&#45;&gt;php -->
<g id="edge18" class="edge">
<title>masterminds/html5&#45;&gt;php</title>
<path fill="none" stroke="#1a2833" d="M997.93,-381.88C1014.35,-366.98 1034,-343.77 1034,-318 1034,-318 1034,-318 1034,-100 1034,-53.43 689.62,-28.26 574.2,-21.14"/>
<polygon fill="#1a2833" stroke="#1a2833" points="574.27,-17.64 564.07,-20.52 573.84,-24.62 574.27,-17.64"/>
<text text-anchor="middle" x="1048.5" y="-206.5" font-family="Times New Roman,serif" font-size="10.00" fill="#767676">&gt;=5.3.0</text>
</g>
<!-- masterminds/html5&#45;&gt;ext&#45;dom -->
<g id="edge16" class="edge">
<title>masterminds/html5&#45;&gt;ext&#45;dom</title>
<path fill="none" stroke="#1a2833" d="M957.34,-381.82C944.74,-370.22 927.93,-354.75 914.02,-341.95"/>
<polygon fill="#1a2833" stroke="#1a2833" points="916.36,-339.35 906.64,-335.15 911.62,-344.5 916.36,-339.35"/>
<text text-anchor="middle" x="941" y="-356" font-family="Times New Roman,serif" font-size="10.00" fill="#767676">*</text>
</g>
<!-- masterminds/html5&#45;&gt;ext&#45;libxml -->
<g id="edge17" class="edge">
<title>masterminds/html5&#45;&gt;ext&#45;libxml</title>
<path fill="none" stroke="#1a2833" d="M1016.39,-381.92C1027.02,-376.75 1038.24,-370.65 1048,-364 1057.21,-357.72 1066.44,-349.81 1074.41,-342.33"/>
<polygon fill="#1a2833" stroke="#1a2833" points="1077.16,-344.53 1081.92,-335.06 1072.3,-339.5 1077.16,-344.53"/>
<text text-anchor="middle" x="1065" y="-356" font-family="Times New Roman,serif" font-size="10.00" fill="#767676">*</text>
</g>
<!-- ext&#45;ctype -->
<g id="node13" class="node">
<title>ext&#45;ctype</title>
<path fill="#eeeeee" stroke="black" d="M994,-335C994,-335 950,-335 950,-335 944,-335 938,-329 938,-323 938,-323 938,-311 938,-311 938,-305 944,-299 950,-299 950,-299 994,-299 994,-299 1000,-299 1006,-305 1006,-311 1006,-311 1006,-323 1006,-323 1006,-329 1000,-335 994,-335"/>
<text text-anchor="middle" x="972" y="-313.3" font-family="Times New Roman,serif" font-size="14.00" fill="#314b5f">ext&#45;ctype</text>
</g>
<!-- masterminds/html5&#45;&gt;ext&#45;ctype -->
<g id="edge15" class="edge">
<title>masterminds/html5&#45;&gt;ext&#45;ctype</title>
<path fill="none" stroke="#1a2833" d="M975.15,-381.82C974.63,-371.19 973.94,-357.31 973.34,-345.2"/>
<polygon fill="#1a2833" stroke="#1a2833" points="976.84,-344.97 972.85,-335.15 969.84,-345.31 976.84,-344.97"/>
<text text-anchor="middle" x="978" y="-356" font-family="Times New Roman,serif" font-size="10.00" fill="#767676">*</text>
</g>
<!-- guzzlehttp/promises&#45;&gt;php -->
<g id="edge11" class="edge">
<title>guzzlehttp/promises&#45;&gt;php</title>
<path fill="none" stroke="#1a2833" d="M136.62,-244.91C112.73,-229.56 81.18,-204.59 67,-173 43.72,-121.12 61.35,-75.47 114,-54 183.42,-25.69 409.72,-20.27 499.66,-19.24"/>
<polygon fill="#1a2833" stroke="#1a2833" points="499.97,-22.74 509.93,-19.13 499.89,-15.74 499.97,-22.74"/>
<text text-anchor="middle" x="81.5" y="-152.5" font-family="Times New Roman,serif" font-size="10.00" fill="#767676">&gt;=5.5.0</text>
</g>
<!-- guzzlehttp/psr7&#45;&gt;php -->
<g id="edge12" class="edge">
<title>guzzlehttp/psr7&#45;&gt;php</title>
<path fill="none" stroke="#1a2833" d="M201.65,-190.98C139.39,-169.38 52.88,-129.32 93,-83 145.65,-22.22 402.28,-17.85 499.54,-18.44"/>
<polygon fill="#1a2833" stroke="#1a2833" points="499.75,-21.94 509.78,-18.52 499.81,-14.94 499.75,-21.94"/>
<text text-anchor="middle" x="107.5" y="-98.5" font-family="Times New Roman,serif" font-size="10.00" fill="#767676">&gt;=5.4.0</text>
</g>
<!-- psr/http&#45;message -->
<g id="node11" class="node">
<title>psr/http&#45;message</title>
<path fill="#eeeeee" stroke="black" d="M265,-119C265,-119 143,-119 143,-119 137,-119 131,-113 131,-107 131,-107 131,-95 131,-95 131,-89 137,-83 143,-83 143,-83 265,-83 265,-83 271,-83 277,-89 277,-95 277,-95 277,-107 277,-107 277,-113 271,-119 265,-119"/>
<text text-anchor="middle" x="204" y="-97.3" font-family="Times New Roman,serif" font-size="14.00" fill="#314b5f">psr/http&#45;message: 1.0.1</text>
</g>
<!-- guzzlehttp/psr7&#45;&gt;psr/http&#45;message -->
<g id="edge13" class="edge">
<title>guzzlehttp/psr7&#45;&gt;psr/http&#45;message</title>
<path fill="none" stroke="#1a2833" d="M248.59,-190.98C245.49,-185.29 242.05,-178.89 239,-173 231.37,-158.27 223.16,-141.65 216.6,-128.19"/>
<polygon fill="#1a2833" stroke="#1a2833" points="219.67,-126.49 212.16,-119.02 213.37,-129.55 219.67,-126.49"/>
<text text-anchor="middle" x="247.5" y="-152.5" font-family="Times New Roman,serif" font-size="10.00" fill="#767676">~1.0</text>
</g>
<!-- ralouphie/getallheaders -->
<g id="node12" class="node">
<title>ralouphie/getallheaders</title>
<path fill="#eeeeee" stroke="black" d="M460.5,-119C460.5,-119 307.5,-119 307.5,-119 301.5,-119 295.5,-113 295.5,-107 295.5,-107 295.5,-95 295.5,-95 295.5,-89 301.5,-83 307.5,-83 307.5,-83 460.5,-83 460.5,-83 466.5,-83 472.5,-89 472.5,-95 472.5,-95 472.5,-107 472.5,-107 472.5,-113 466.5,-119 460.5,-119"/>
<text text-anchor="middle" x="384" y="-97.3" font-family="Times New Roman,serif" font-size="14.00" fill="#314b5f">ralouphie/getallheaders: 3.0.3</text>
</g>
<!-- guzzlehttp/psr7&#45;&gt;ralouphie/getallheaders -->
<g id="edge14" class="edge">
<title>guzzlehttp/psr7&#45;&gt;ralouphie/getallheaders</title>
<path fill="none" stroke="#1a2833" d="M260.35,-190.85C263.39,-174.89 270.19,-151.47 285,-137 290.25,-131.88 296.29,-127.5 302.74,-123.76"/>
<polygon fill="#1a2833" stroke="#1a2833" points="304.52,-126.78 311.77,-119.05 301.28,-120.57 304.52,-126.78"/>
<text text-anchor="middle" x="311.5" y="-152.5" font-family="Times New Roman,serif" font-size="10.00" fill="#767676">^2.0.5 || ^3.0.0</text>
</g>
<!-- symfony/polyfill&#45;intl&#45;idn&#45;&gt;php -->
<g id="edge22" class="edge">
<title>symfony/polyfill&#45;intl&#45;idn&#45;&gt;php</title>
<path fill="none" stroke="#1a2833" d="M592.57,-298.75C582.74,-249.23 554.35,-106.35 542.4,-46.2"/>
<polygon fill="#1a2833" stroke="#1a2833" points="545.82,-45.43 540.44,-36.3 538.95,-46.79 545.82,-45.43"/>
<text text-anchor="middle" x="582.5" y="-152.5" font-family="Times New Roman,serif" font-size="10.00" fill="#767676">&gt;=5.3.3</text>
</g>
<!-- symfony/polyfill&#45;intl&#45;normalizer -->
<g id="node15" class="node">
<title>symfony/polyfill&#45;intl&#45;normalizer</title>
<path fill="#eeeeee" stroke="black" d="M946.5,-173C946.5,-173 731.5,-173 731.5,-173 725.5,-173 719.5,-167 719.5,-161 719.5,-161 719.5,-149 719.5,-149 719.5,-143 725.5,-137 731.5,-137 731.5,-137 946.5,-137 946.5,-137 952.5,-137 958.5,-143 958.5,-149 958.5,-149 958.5,-161 958.5,-161 958.5,-167 952.5,-173 946.5,-173"/>
<text text-anchor="middle" x="839" y="-151.3" font-family="Times New Roman,serif" font-size="14.00" fill="#314b5f">symfony/polyfill&#45;intl&#45;normalizer: v1.18.1</text>
</g>
<!-- symfony/polyfill&#45;intl&#45;idn&#45;&gt;symfony/polyfill&#45;intl&#45;normalizer -->
<g id="edge23" class="edge">
<title>symfony/polyfill&#45;intl&#45;idn&#45;&gt;symfony/polyfill&#45;intl&#45;normalizer</title>
<path fill="none" stroke="#1a2833" d="M662.28,-298.95C705.06,-285.24 759.68,-262.33 798,-227 811.27,-214.77 821.45,-197.25 828.34,-182.67"/>
<polygon fill="#1a2833" stroke="#1a2833" points="831.71,-183.71 832.59,-173.15 825.32,-180.85 831.71,-183.71"/>
<text text-anchor="middle" x="785.5" y="-260.5" font-family="Times New Roman,serif" font-size="10.00" fill="#767676">^1.10</text>
</g>
<!-- symfony/polyfill&#45;php70 -->
<g id="node16" class="node">
<title>symfony/polyfill&#45;php70</title>
<path fill="#eeeeee" stroke="black" d="M777.5,-227C777.5,-227 606.5,-227 606.5,-227 600.5,-227 594.5,-221 594.5,-215 594.5,-215 594.5,-203 594.5,-203 594.5,-197 600.5,-191 606.5,-191 606.5,-191 777.5,-191 777.5,-191 783.5,-191 789.5,-197 789.5,-203 789.5,-203 789.5,-215 789.5,-215 789.5,-221 783.5,-227 777.5,-227"/>
<text text-anchor="middle" x="692" y="-205.3" font-family="Times New Roman,serif" font-size="14.00" fill="#314b5f">symfony/polyfill&#45;php70: v1.18.1</text>
</g>
<!-- symfony/polyfill&#45;intl&#45;idn&#45;&gt;symfony/polyfill&#45;php70 -->
<g id="edge24" class="edge">
<title>symfony/polyfill&#45;intl&#45;idn&#45;&gt;symfony/polyfill&#45;php70</title>
<path fill="none" stroke="#1a2833" d="M611.42,-298.97C627.15,-281.61 651.7,-254.5 669.57,-234.77"/>
<polygon fill="#1a2833" stroke="#1a2833" points="672.18,-237.1 676.3,-227.34 666.99,-232.4 672.18,-237.1"/>
<text text-anchor="middle" x="669.5" y="-260.5" font-family="Times New Roman,serif" font-size="10.00" fill="#767676">^1.10</text>
</g>
<!-- symfony/polyfill&#45;php72 -->
<g id="node17" class="node">
<title>symfony/polyfill&#45;php72</title>
<path fill="#eeeeee" stroke="black" d="M530.5,-173C530.5,-173 359.5,-173 359.5,-173 353.5,-173 347.5,-167 347.5,-161 347.5,-161 347.5,-149 347.5,-149 347.5,-143 353.5,-137 359.5,-137 359.5,-137 530.5,-137 530.5,-137 536.5,-137 542.5,-143 542.5,-149 542.5,-149 542.5,-161 542.5,-161 542.5,-167 536.5,-173 530.5,-173"/>
<text text-anchor="middle" x="445" y="-151.3" font-family="Times New Roman,serif" font-size="14.00" fill="#314b5f">symfony/polyfill&#45;php72: v1.18.1</text>
</g>
<!-- symfony/polyfill&#45;intl&#45;idn&#45;&gt;symfony/polyfill&#45;php72 -->
<g id="edge25" class="edge">
<title>symfony/polyfill&#45;intl&#45;idn&#45;&gt;symfony/polyfill&#45;php72</title>
<path fill="none" stroke="#1a2833" d="M556.9,-298.82C547.84,-293.83 538.63,-287.85 531,-281 499.07,-252.37 472.97,-209.6 458.2,-182.25"/>
<polygon fill="#1a2833" stroke="#1a2833" points="461.22,-180.48 453.46,-173.27 455.03,-183.75 461.22,-180.48"/>
<text text-anchor="middle" x="541.5" y="-260.5" font-family="Times New Roman,serif" font-size="10.00" fill="#767676">^1.10</text>
</g>
<!-- psr/http&#45;message&#45;&gt;php -->
<g id="edge20" class="edge">
<title>psr/http&#45;message&#45;&gt;php</title>
<path fill="none" stroke="#1a2833" d="M274.21,-82.92C343.05,-66.18 445.34,-41.29 499.77,-28.06"/>
<polygon fill="#1a2833" stroke="#1a2833" points="500.79,-31.41 509.68,-25.65 499.13,-24.61 500.79,-31.41"/>
<text text-anchor="middle" x="405.5" y="-57" font-family="Times New Roman,serif" font-size="10.00" fill="#767676">&gt;=5.3.0</text>
</g>
<!-- ralouphie/getallheaders&#45;&gt;php -->
<g id="edge21" class="edge">
<title>ralouphie/getallheaders&#45;&gt;php</title>
<path fill="none" stroke="#1a2833" d="M416.45,-82.82C441.13,-69.75 475.11,-51.77 500.7,-38.22"/>
<polygon fill="#1a2833" stroke="#1a2833" points="502.51,-41.22 509.71,-33.45 499.24,-35.03 502.51,-41.22"/>
<text text-anchor="middle" x="481" y="-57" font-family="Times New Roman,serif" font-size="10.00" fill="#767676">&gt;=5.6</text>
</g>
<!-- paragonie/random_compat -->
<g id="node14" class="node">
<title>paragonie/random_compat</title>
<path fill="#eeeeee" stroke="black" d="M868.5,-119C868.5,-119 671.5,-119 671.5,-119 665.5,-119 659.5,-113 659.5,-107 659.5,-107 659.5,-95 659.5,-95 659.5,-89 665.5,-83 671.5,-83 671.5,-83 868.5,-83 868.5,-83 874.5,-83 880.5,-89 880.5,-95 880.5,-95 880.5,-107 880.5,-107 880.5,-113 874.5,-119 868.5,-119"/>
<text text-anchor="middle" x="770" y="-97.3" font-family="Times New Roman,serif" font-size="14.00" fill="#314b5f">paragonie/random_compat: v9.99.99</text>
</g>
<!-- paragonie/random_compat&#45;&gt;php -->
<g id="edge19" class="edge">
<title>paragonie/random_compat&#45;&gt;php</title>
<path fill="none" stroke="#1a2833" d="M720.87,-82.92C676.93,-67.65 613.51,-45.6 573.8,-31.79"/>
<polygon fill="#1a2833" stroke="#1a2833" points="574.84,-28.45 564.25,-28.47 572.54,-35.06 574.84,-28.45"/>
<text text-anchor="middle" x="673" y="-57" font-family="Times New Roman,serif" font-size="10.00" fill="#767676">^7</text>
</g>
<!-- symfony/polyfill&#45;intl&#45;normalizer&#45;&gt;php -->
<g id="edge26" class="edge">
<title>symfony/polyfill&#45;intl&#45;normalizer&#45;&gt;php</title>
<path fill="none" stroke="#1a2833" d="M873.14,-136.82C879.52,-131.97 885.33,-126.05 889,-119 896.39,-104.81 899.25,-95.28 889,-83 849.16,-35.26 656.31,-23.05 574.17,-19.99"/>
<polygon fill="#1a2833" stroke="#1a2833" points="574.15,-16.49 564.03,-19.64 573.9,-23.48 574.15,-16.49"/>
<text text-anchor="middle" x="910.5" y="-98.5" font-family="Times New Roman,serif" font-size="10.00" fill="#767676">&gt;=5.3.3</text>
</g>
<!-- symfony/polyfill&#45;php70&#45;&gt;php -->
<g id="edge28" class="edge">
<title>symfony/polyfill&#45;php70&#45;&gt;php</title>
<path fill="none" stroke="#1a2833" d="M662.57,-190.89C655.27,-185.76 647.87,-179.69 642,-173 602.67,-128.17 617.68,-100.22 580,-54 576.89,-50.19 573.32,-46.51 569.58,-43.05"/>
<polygon fill="#1a2833" stroke="#1a2833" points="571.64,-40.21 561.78,-36.32 567.06,-45.5 571.64,-40.21"/>
<text text-anchor="middle" x="626.5" y="-98.5" font-family="Times New Roman,serif" font-size="10.00" fill="#767676">&gt;=5.3.3</text>
</g>
<!-- symfony/polyfill&#45;php70&#45;&gt;paragonie/random_compat -->
<g id="edge27" class="edge">
<title>symfony/polyfill&#45;php70&#45;&gt;paragonie/random_compat</title>
<path fill="none" stroke="#1a2833" d="M665.6,-190.65C660.1,-185.66 655.05,-179.72 652,-173 645.39,-158.43 642.43,-149.82 652,-137 655.44,-132.4 659.45,-128.38 663.88,-124.86"/>
<polygon fill="#1a2833" stroke="#1a2833" points="666.03,-127.63 672.28,-119.08 662.06,-121.87 666.03,-127.63"/>
<text text-anchor="middle" x="681" y="-152.5" font-family="Times New Roman,serif" font-size="10.00" fill="#767676">~1.0|~2.0|~9.99</text>
</g>
<!-- symfony/polyfill&#45;php72&#45;&gt;php -->
<g id="edge29" class="edge">
<title>symfony/polyfill&#45;php72&#45;&gt;php</title>
<path fill="none" stroke="#1a2833" d="M464.75,-136.78C470.35,-131.39 476.22,-125.22 481,-119 498.79,-95.84 514.59,-66.37 524.83,-45.44"/>
<polygon fill="#1a2833" stroke="#1a2833" points="528.09,-46.72 529.26,-36.19 521.78,-43.69 528.09,-46.72"/>
<text text-anchor="middle" x="519.5" y="-98.5" font-family="Times New Roman,serif" font-size="10.00" fill="#767676">&gt;=5.3.3</text>
</g>
</g>
</svg>
