<?xml version="1.0" encoding="UTF-8" standalone="no"?>
<!DOCTYPE svg PUBLIC "-//W3C//DTD SVG 1.1//EN"
 "http://www.w3.org/Graphics/SVG/1.1/DTD/svg11.dtd">
<!-- Generated by graphviz version 2.38.0 (20140413.2041)
 -->
<!-- Title: G Pages: 1 -->
<svg width="569pt" height="401pt"
 viewBox="0.00 0.00 569.00 401.00" xmlns="http://www.w3.org/2000/svg" xmlns:xlink="http://www.w3.org/1999/xlink">
<g id="graph0" class="graph" transform="scale(1 1) rotate(0) translate(4 397)">
<title>G</title>
<polygon fill="white" stroke="none" points="-4,4 -4,-397 565,-397 565,4 -4,4"/>
<!-- jkphl/dom&#45;factory -->
<g id="node1" class="node"><title>jkphl/dom&#45;factory</title>
<path fill="#eeeeee" stroke="black" stroke-width="2" d="M213,-393C213,-393 121,-393 121,-393 115,-393 109,-387 109,-381 109,-381 109,-369 109,-369 109,-363 115,-357 121,-357 121,-357 213,-357 213,-357 219,-357 225,-363 225,-369 225,-369 225,-381 225,-381 225,-387 219,-393 213,-393"/>
<text text-anchor="middle" x="167" y="-371.3" font-family="Times,serif" font-size="14.00" fill="#314b5f">jkphl/dom&#45;factory</text>
</g>
<!-- php -->
<g id="node2" class="node"><title>php</title>
<path fill="#eeeeee" stroke="black" d="M216,-36C216,-36 186,-36 186,-36 180,-36 174,-30 174,-24 174,-24 174,-12 174,-12 174,-6 180,-0 186,-0 186,-0 216,-0 216,-0 222,-0 228,-6 228,-12 228,-12 228,-24 228,-24 228,-30 222,-36 216,-36"/>
<text text-anchor="middle" x="201" y="-14.3" font-family="Times,serif" font-size="14.00" fill="#314b5f">php</text>
</g>
<!-- jkphl/dom&#45;factory&#45;&gt;php -->
<g id="edge1" class="edge"><title>jkphl/dom&#45;factory&#45;&gt;php</title>
<path fill="none" stroke="#1a2833" d="M108.592,-369.304C60.4335,-361.856 0,-342.624 0,-293 0,-293 0,-293 0,-100 0,-30.2259 105.488,-19.0363 163.624,-18.1676"/>
<polygon fill="#1a2833" stroke="#1a2833" points="163.911,-21.6662 173.892,-18.1137 163.874,-14.6663 163.911,-21.6662"/>
<text text-anchor="middle" x="12.5" y="-206.5" font-family="Times,serif" font-size="10.00" fill="#767676">&gt;=5.6</text>
</g>
<!-- guzzlehttp/guzzle -->
<g id="node3" class="node"><title>guzzlehttp/guzzle</title>
<path fill="#eeeeee" stroke="black" d="M228.5,-310C228.5,-310 105.5,-310 105.5,-310 99.5,-310 93.5,-304 93.5,-298 93.5,-298 93.5,-286 93.5,-286 93.5,-280 99.5,-274 105.5,-274 105.5,-274 228.5,-274 228.5,-274 234.5,-274 240.5,-280 240.5,-286 240.5,-286 240.5,-298 240.5,-298 240.5,-304 234.5,-310 228.5,-310"/>
<text text-anchor="middle" x="167" y="-288.3" font-family="Times,serif" font-size="14.00" fill="#314b5f">guzzlehttp/guzzle: 6.2.3</text>
</g>
<!-- jkphl/dom&#45;factory&#45;&gt;guzzlehttp/guzzle -->
<g id="edge2" class="edge"><title>jkphl/dom&#45;factory&#45;&gt;guzzlehttp/guzzle</title>
<path fill="none" stroke="#1a2833" d="M167,-356.822C167,-346.19 167,-332.306 167,-320.204"/>
<polygon fill="#1a2833" stroke="#1a2833" points="170.5,-320.153 167,-310.153 163.5,-320.153 170.5,-320.153"/>
<text text-anchor="middle" x="176" y="-331" font-family="Times,serif" font-size="10.00" fill="#767676">^6.2</text>
</g>
<!-- masterminds/html5 -->
<g id="node4" class="node"><title>masterminds/html5</title>
<path fill="#eeeeee" stroke="black" d="M526,-310C526,-310 392,-310 392,-310 386,-310 380,-304 380,-298 380,-298 380,-286 380,-286 380,-280 386,-274 392,-274 392,-274 526,-274 526,-274 532,-274 538,-280 538,-286 538,-286 538,-298 538,-298 538,-304 532,-310 526,-310"/>
<text text-anchor="middle" x="459" y="-288.3" font-family="Times,serif" font-size="14.00" fill="#314b5f">masterminds/html5: 2.2.2</text>
</g>
<!-- jkphl/dom&#45;factory&#45;&gt;masterminds/html5 -->
<g id="edge3" class="edge"><title>jkphl/dom&#45;factory&#45;&gt;masterminds/html5</title>
<path fill="none" stroke="#1a2833" d="M225.039,-357.9C271.817,-344.924 337.8,-326.621 387.774,-312.758"/>
<polygon fill="#1a2833" stroke="#1a2833" points="388.845,-316.093 397.545,-310.047 386.974,-309.348 388.845,-316.093"/>
<text text-anchor="middle" x="340" y="-331" font-family="Times,serif" font-size="10.00" fill="#767676">^2.2</text>
</g>
<!-- guzzlehttp/guzzle&#45;&gt;php -->
<g id="edge6" class="edge"><title>guzzlehttp/guzzle&#45;&gt;php</title>
<path fill="none" stroke="#1a2833" d="M136.72,-273.858C93.4467,-246.966 21.9678,-192.207 49,-137 72.8704,-88.2499 127.67,-53.8481 164.523,-35.2193"/>
<polygon fill="#1a2833" stroke="#1a2833" points="166.499,-38.1485 173.938,-30.604 163.418,-31.863 166.499,-38.1485"/>
<text text-anchor="middle" x="61.5" y="-152.5" font-family="Times,serif" font-size="10.00" fill="#767676">&gt;=5.5</text>
</g>
<!-- guzzlehttp/promises -->
<g id="node5" class="node"><title>guzzlehttp/promises</title>
<path fill="#eeeeee" stroke="black" d="M239,-173C239,-173 95,-173 95,-173 89,-173 83,-167 83,-161 83,-161 83,-149 83,-149 83,-143 89,-137 95,-137 95,-137 239,-137 239,-137 245,-137 251,-143 251,-149 251,-149 251,-161 251,-161 251,-167 245,-173 239,-173"/>
<text text-anchor="middle" x="167" y="-151.3" font-family="Times,serif" font-size="14.00" fill="#314b5f">guzzlehttp/promises: v1.3.1</text>
</g>
<!-- guzzlehttp/guzzle&#45;&gt;guzzlehttp/promises -->
<g id="edge4" class="edge"><title>guzzlehttp/guzzle&#45;&gt;guzzlehttp/promises</title>
<path fill="none" stroke="#1a2833" d="M167,-273.902C167,-251.103 167,-210.479 167,-183.386"/>
<polygon fill="#1a2833" stroke="#1a2833" points="170.5,-183.385 167,-173.385 163.5,-183.385 170.5,-183.385"/>
<text text-anchor="middle" x="176" y="-248" font-family="Times,serif" font-size="10.00" fill="#767676">^1.0</text>
</g>
<!-- guzzlehttp/psr7 -->
<g id="node6" class="node"><title>guzzlehttp/psr7</title>
<path fill="#eeeeee" stroke="black" d="M321.5,-227C321.5,-227 210.5,-227 210.5,-227 204.5,-227 198.5,-221 198.5,-215 198.5,-215 198.5,-203 198.5,-203 198.5,-197 204.5,-191 210.5,-191 210.5,-191 321.5,-191 321.5,-191 327.5,-191 333.5,-197 333.5,-203 333.5,-203 333.5,-215 333.5,-215 333.5,-221 327.5,-227 321.5,-227"/>
<text text-anchor="middle" x="266" y="-205.3" font-family="Times,serif" font-size="14.00" fill="#314b5f">guzzlehttp/psr7: 1.4.2</text>
</g>
<!-- guzzlehttp/guzzle&#45;&gt;guzzlehttp/psr7 -->
<g id="edge5" class="edge"><title>guzzlehttp/guzzle&#45;&gt;guzzlehttp/psr7</title>
<path fill="none" stroke="#1a2833" d="M187.995,-273.822C202.302,-262.116 221.428,-246.468 237.161,-233.596"/>
<polygon fill="#1a2833" stroke="#1a2833" points="239.512,-236.195 245.035,-227.153 235.079,-230.777 239.512,-236.195"/>
<text text-anchor="middle" x="232" y="-248" font-family="Times,serif" font-size="10.00" fill="#767676">^1.4</text>
</g>
<!-- masterminds/html5&#45;&gt;php -->
<g id="edge11" class="edge"><title>masterminds/html5&#45;&gt;php</title>
<path fill="none" stroke="#1a2833" d="M463.313,-273.75C471.966,-234.697 486.844,-138.601 440,-83 414.152,-52.3202 298.789,-32.3392 238.297,-23.7773"/>
<polygon fill="#1a2833" stroke="#1a2833" points="238.411,-20.2598 228.026,-22.3588 237.453,-27.194 238.411,-20.2598"/>
<text text-anchor="middle" x="488.5" y="-152.5" font-family="Times,serif" font-size="10.00" fill="#767676">&gt;=5.3.0</text>
</g>
<!-- ext&#45;libxml -->
<g id="node8" class="node"><title>ext&#45;libxml</title>
<path fill="#eeeeee" stroke="black" d="M549,-227C549,-227 499,-227 499,-227 493,-227 487,-221 487,-215 487,-215 487,-203 487,-203 487,-197 493,-191 499,-191 499,-191 549,-191 549,-191 555,-191 561,-197 561,-203 561,-203 561,-215 561,-215 561,-221 555,-227 549,-227"/>
<text text-anchor="middle" x="524" y="-205.3" font-family="Times,serif" font-size="14.00" fill="#314b5f">ext&#45;libxml</text>
</g>
<!-- masterminds/html5&#45;&gt;ext&#45;libxml -->
<g id="edge10" class="edge"><title>masterminds/html5&#45;&gt;ext&#45;libxml</title>
<path fill="none" stroke="#1a2833" d="M472.785,-273.822C481.833,-262.546 493.818,-247.611 503.919,-235.024"/>
<polygon fill="#1a2833" stroke="#1a2833" points="506.706,-237.143 510.235,-227.153 501.247,-232.762 506.706,-237.143"/>
<text text-anchor="middle" x="499" y="-248" font-family="Times,serif" font-size="10.00" fill="#767676">*</text>
</g>
<!-- guzzlehttp/promises&#45;&gt;php -->
<g id="edge7" class="edge"><title>guzzlehttp/promises&#45;&gt;php</title>
<path fill="none" stroke="#1a2833" d="M169.826,-136.957C172.351,-122.502 176.36,-101.265 181,-83 184.116,-70.7337 188.193,-57.3432 191.852,-45.9957"/>
<polygon fill="#1a2833" stroke="#1a2833" points="195.261,-46.8326 195.055,-36.2397 188.61,-44.6486 195.261,-46.8326"/>
<text text-anchor="middle" x="197.5" y="-98.5" font-family="Times,serif" font-size="10.00" fill="#767676">&gt;=5.5.0</text>
</g>
<!-- guzzlehttp/psr7&#45;&gt;php -->
<g id="edge8" class="edge"><title>guzzlehttp/psr7&#45;&gt;php</title>
<path fill="none" stroke="#1a2833" d="M263.664,-190.819C261.438,-176.279 257.593,-154.997 252,-137 249.149,-127.826 227.061,-77.6096 212.903,-45.7121"/>
<polygon fill="#1a2833" stroke="#1a2833" points="216.054,-44.1834 208.794,-36.4667 209.657,-47.0263 216.054,-44.1834"/>
<text text-anchor="middle" x="261.5" y="-98.5" font-family="Times,serif" font-size="10.00" fill="#767676">&gt;=5.4.0</text>
</g>
<!-- psr/http&#45;message -->
<g id="node7" class="node"><title>psr/http&#45;message</title>
<path fill="#eeeeee" stroke="black" d="M419,-119C419,-119 299,-119 299,-119 293,-119 287,-113 287,-107 287,-107 287,-95 287,-95 287,-89 293,-83 299,-83 299,-83 419,-83 419,-83 425,-83 431,-89 431,-95 431,-95 431,-107 431,-107 431,-113 425,-119 419,-119"/>
<text text-anchor="middle" x="359" y="-97.3" font-family="Times,serif" font-size="14.00" fill="#314b5f">psr/http&#45;message: 1.0.1</text>
</g>
<!-- guzzlehttp/psr7&#45;&gt;psr/http&#45;message -->
<g id="edge9" class="edge"><title>guzzlehttp/psr7&#45;&gt;psr/http&#45;message</title>
<path fill="none" stroke="#1a2833" d="M280.942,-190.969C296.105,-173.687 319.745,-146.743 337.038,-127.032"/>
<polygon fill="#1a2833" stroke="#1a2833" points="339.822,-129.166 343.786,-119.341 334.56,-124.549 339.822,-129.166"/>
<text text-anchor="middle" x="336.5" y="-152.5" font-family="Times,serif" font-size="10.00" fill="#767676">~1.0</text>
</g>
<!-- psr/http&#45;message&#45;&gt;php -->
<g id="edge12" class="edge"><title>psr/http&#45;message&#45;&gt;php</title>
<path fill="none" stroke="#1a2833" d="M325.492,-82.822C299.562,-69.5288 263.713,-51.1506 237.142,-37.5283"/>
<polygon fill="#1a2833" stroke="#1a2833" points="238.657,-34.3719 228.161,-32.9244 235.463,-40.601 238.657,-34.3719"/>
<text text-anchor="middle" x="306.5" y="-57" font-family="Times,serif" font-size="10.00" fill="#767676">&gt;=5.3.0</text>
</g>
</g>
</svg>
