<?xml version="1.0" encoding="UTF-8" standalone="no"?>
<!DOCTYPE svg PUBLIC "-//W3C//DTD SVG 1.1//EN"
 "http://www.w3.org/Graphics/SVG/1.1/DTD/svg11.dtd">
<!-- Generated by graphviz version 2.38.0 (20140413.2041)
 -->
<!-- Title: G Pages: 1 -->
<svg width="229pt" height="210pt"
 viewBox="0.00 0.00 229.00 210.00" xmlns="http://www.w3.org/2000/svg" xmlns:xlink="http://www.w3.org/1999/xlink">
<g id="graph0" class="graph" transform="scale(1 1) rotate(0) translate(4 206)">
<title>G</title>
<polygon fill="white" stroke="none" points="-4,4 -4,-206 225,-206 225,4 -4,4"/>
<!-- jkphl/dom&#45;factory -->
<g id="node1" class="node"><title>jkphl/dom&#45;factory</title>
<path fill="#eeeeee" stroke="black" stroke-width="2" d="M104,-202C104,-202 12,-202 12,-202 6,-202 7.10543e-15,-196 7.10543e-15,-190 7.10543e-15,-190 7.10543e-15,-178 7.10543e-15,-178 7.10543e-15,-172 6,-166 12,-166 12,-166 104,-166 104,-166 110,-166 116,-172 116,-178 116,-178 116,-190 116,-190 116,-196 110,-202 104,-202"/>
<text text-anchor="middle" x="58" y="-180.3" font-family="Times,serif" font-size="14.00" fill="#314b5f">jkphl/dom&#45;factory</text>
</g>
<!-- php -->
<g id="node2" class="node"><title>php</title>
<path fill="#eeeeee" stroke="black" d="M55,-36C55,-36 25,-36 25,-36 19,-36 13,-30 13,-24 13,-24 13,-12 13,-12 13,-6 19,-0 25,-0 25,-0 55,-0 55,-0 61,-0 67,-6 67,-12 67,-12 67,-24 67,-24 67,-30 61,-36 55,-36"/>
<text text-anchor="middle" x="40" y="-14.3" font-family="Times,serif" font-size="14.00" fill="#314b5f">php</text>
</g>
<!-- jkphl/dom&#45;factory&#45;&gt;php -->
<g id="edge1" class="edge"><title>jkphl/dom&#45;factory&#45;&gt;php</title>
<path fill="none" stroke="#1a2833" d="M47.754,-165.769C40.9407,-153.269 32.6056,-135.693 29,-119 23.7246,-94.5762 27.7807,-66.2203 32.3862,-45.9547"/>
<polygon fill="#1a2833" stroke="#1a2833" points="35.8059,-46.705 34.7981,-36.1582 29.0089,-45.0315 35.8059,-46.705"/>
<text text-anchor="middle" x="41.5" y="-98.5" font-family="Times,serif" font-size="10.00" fill="#767676">&gt;=5.6</text>
</g>
<!-- masterminds/html5 -->
<g id="node3" class="node"><title>masterminds/html5</title>
<path fill="#eeeeee" stroke="black" d="M209,-119C209,-119 75,-119 75,-119 69,-119 63,-113 63,-107 63,-107 63,-95 63,-95 63,-89 69,-83 75,-83 75,-83 209,-83 209,-83 215,-83 221,-89 221,-95 221,-95 221,-107 221,-107 221,-113 215,-119 209,-119"/>
<text text-anchor="middle" x="142" y="-97.3" font-family="Times,serif" font-size="14.00" fill="#314b5f">masterminds/html5: 2.2.2</text>
</g>
<!-- jkphl/dom&#45;factory&#45;&gt;masterminds/html5 -->
<g id="edge2" class="edge"><title>jkphl/dom&#45;factory&#45;&gt;masterminds/html5</title>
<path fill="none" stroke="#1a2833" d="M75.8142,-165.822C87.7306,-154.331 103.587,-139.041 116.793,-126.307"/>
<polygon fill="#1a2833" stroke="#1a2833" points="119.442,-128.614 124.211,-119.153 114.583,-123.575 119.442,-128.614"/>
<text text-anchor="middle" x="115" y="-140" font-family="Times,serif" font-size="10.00" fill="#767676">^2.2</text>
</g>
<!-- masterminds/html5&#45;&gt;php -->
<g id="edge4" class="edge"><title>masterminds/html5&#45;&gt;php</title>
<path fill="none" stroke="#1a2833" d="M120.368,-82.822C105.628,-71.1164 85.9226,-55.4679 69.7133,-42.5959"/>
<polygon fill="#1a2833" stroke="#1a2833" points="71.6081,-39.6312 61.6004,-36.1533 67.2549,-45.113 71.6081,-39.6312"/>
<text text-anchor="middle" x="114.5" y="-57" font-family="Times,serif" font-size="10.00" fill="#767676">&gt;=5.3.0</text>
</g>
<!-- ext&#45;libxml -->
<g id="node4" class="node"><title>ext&#45;libxml</title>
<path fill="#eeeeee" stroke="black" d="M167,-36C167,-36 117,-36 117,-36 111,-36 105,-30 105,-24 105,-24 105,-12 105,-12 105,-6 111,-0 117,-0 117,-0 167,-0 167,-0 173,-0 179,-6 179,-12 179,-12 179,-24 179,-24 179,-30 173,-36 167,-36"/>
<text text-anchor="middle" x="142" y="-14.3" font-family="Times,serif" font-size="14.00" fill="#314b5f">ext&#45;libxml</text>
</g>
<!-- masterminds/html5&#45;&gt;ext&#45;libxml -->
<g id="edge3" class="edge"><title>masterminds/html5&#45;&gt;ext&#45;libxml</title>
<path fill="none" stroke="#1a2833" d="M142,-82.822C142,-72.1903 142,-58.306 142,-46.2035"/>
<polygon fill="#1a2833" stroke="#1a2833" points="145.5,-46.1532 142,-36.1533 138.5,-46.1533 145.5,-46.1532"/>
<text text-anchor="middle" x="145" y="-57" font-family="Times,serif" font-size="10.00" fill="#767676">*</text>
</g>
</g>
</svg>
